# xmcd CD database file
#
# Track frame offsets:
#	150
#	15590
#	29150
#	46737
#	61992
#	76280
#	99035
#	116617
#	134722
#	152172
#	171965
#	192375
#	209652
#	240977
#
# Disc length: 4440 seconds
#
# Revision: 0
# Processed by: cddbd v1.5.1PL2 Copyright (c) Steve Scherf et al.
# Submitted via: CDex 1.51
#
DISCID=bb11560e
DTITLE=03(ゼロサン) - 03(with BONUS TRACK)
DYEAR=2003
DGENRE=Rock
TTITLE0=03
TTITLE1=憂国
TTITLE2=応答セヨ
TTITLE3=GROUND ZERO
TTITLE4=テレヴィジョン
TTITLE5=君死にたまふことなかれ
TTITLE6=AREA 51
TTITLE7=BOY
TTITLE8=渋谷
TTITLE9=OSWALD
TTITLE10=戒厳令の夜
TTITLE11=CAROL
TTITLE12=FREE BIRD(BONUS TRACK)
TTITLE13=unknown trax
EXTD=YEAR: 2003
EXTT0=
EXTT1=
EXTT2=
EXTT3=
EXTT4=
EXTT5=
EXTT6=
EXTT7=
EXTT8=
EXTT9=
EXTT10=
EXTT11=
EXTT12=
EXTT13=
PLAYORDER=
